<?xml version="1.0" encoding="UTF-8" standalone="no"?> <!-- Created with Vectornator for iOS (http://vectornator.io/) --><!DOCTYPE svg PUBLIC "-//W3C//DTD SVG 1.1//EN" "http://www.w3.org/Graphics/SVG/1.1/DTD/svg11.dtd">
<svg height="100%" style="fill-rule:evenodd;clip-rule:evenodd;stroke-linecap:round;stroke-linejoin:round;" xmlns:xlink="http://www.w3.org/1999/xlink" xmlns="http://www.w3.org/2000/svg" xml:space="preserve" width="100%" xmlns:vectornator="http://vectornator.io" version="1.1" viewBox="0 0 1024 1024">
<metadata>
<vectornator:setting key="DisplayWhiteBackground" value="0"/>
<vectornator:setting key="RulersVisible" value="1"/>
<vectornator:setting key="Units" value="Pixels"/>
<vectornator:setting key="New" value="1"/>
<vectornator:setting key="DynamicGuides" value="0"/>
<vectornator:setting key="GuidesVisible" value="1"/>
<vectornator:setting key="SnapToPoints" value="0"/>
<vectornator:setting key="SnapToGrid" value="0"/>
<vectornator:setting key="SnapToGuides" value="1"/>
<vectornator:setting key="DimensionsVisible" value="1"/>
<vectornator:setting key="SnapToEdges" value="0"/>
</metadata>
<defs>
<linearGradient y1="16" id="LinearGradient" x1="30.9989" y2="55.3422" x2="30.9989" gradientUnits="userSpaceOnUse" gradientTransform="matrix(18.6459 0 0 17.1334 -90.9083 -50.7875)">
<stop stop-color="#6dc7ff" offset="0"/>
<stop stop-color="#e6abff" offset="1"/>
</linearGradient>
<linearGradient y1="5" id="LinearGradient_2" x1="32" y2="59.1669" x2="32" gradientUnits="userSpaceOnUse" gradientTransform="matrix(18.6459 0 0 17.1334 -90.9083 -50.7875)">
<stop stop-color="#1a6dff" offset="0"/>
<stop stop-color="#c822ff" offset="1"/>
</linearGradient>
</defs>
<g id="Layer 1" vectornator:layerName="Layer 1">
<path d="M375.389+908.803C375.333+902.498+375.277+875.187+375.221+849.624L375.165+823.067C249.697+838.744+219.322+758.303+218.987+757.446C201.571+716.874+177.761+705.275+176.735+704.795L174.423+703.562C165.79+698.148+142.893+683.738+149.4+664.789C155.274+647.707+178.04+645.942+188.389+646.251C245.706+649.934+274.719+697.274+275.913+699.278C305.168+745.35+349.825+740.587+378.633+730.872C381.318+719.085+385.476+708.256+390.921+698.696C298.512+683.636+193.815+638.472+193.815+474.18C193.815+429.068+209.104+389.198+239.329+355.463C232.58+334.8+224.897+292.651+247.646+239.555L250.89+231.982L259.318+229.515C267.075+227.168+309.438+218.824+396.533+271.2C432.482+262.737+470.539+258.368+509.788+258.196C549.224+258.368+587.318+262.737+623.342+271.2C710.362+218.807+752.633+227.253+760.408+229.515L768.817+231.999L772.062+239.538C794.903+292.617+787.221+334.782+780.471+355.462C810.64+389.095+825.93+428.982+825.93+474.18C825.93+638.506+721.121+683.533+628.507+698.405C639.004+716.652+644.691+739.559+644.691+764.848C644.691+793.683+644.561+888.277+644.412+908.803L607.12+908.563C607.269+888.071+607.4+793.632+607.4+764.831C607.4+722.991+589.817+704.487+582.228+698.456L549.97+672.807L592.371+668.473C689.423+658.569+788.619+627.712+788.619+474.163C788.619+434.242+774.131+399.444+745.547+370.746L737.529+362.71L742.042+352.653C745.137+345.782+758.711+310.813+741.24+262C727.106+262.771+693.357+268.887+637.121+303.925L629.961+308.363L621.664+306.255C586.926+297.38+548.236+292.617+509.77+292.446C471.508+292.617+432.874+297.38+398.193+306.255L389.895+308.363L382.754+303.925C326.462+268.905+292.638+262.737+278.449+261.966C261.015+310.813+274.607+345.782+277.703+352.653L282.215+362.71L274.216+370.746C245.576+399.547+231.069+434.345+231.069+474.163C231.069+627.644+330.079+658.689+426.926+668.815L468.916+673.201L437.069+698.73C430.133+704.299+417.864+717.783+413.687+745.453L412.289+754.859L402.854+758.748C378.223+768.891+293.981+795.791+243.469+716.172C243.189+715.744+233.325+699.981+215.463+689.495C227.508+700.444+242.182+718.159+254.022+745.813C255.253+749.068+279.325+807.87+389.765+785.888L412.252+781.399L412.475+849.555C412.531+875.033+412.587+902.258+412.643+908.563L375.389+908.803Z" opacity="1" fill="url(#LinearGradient)"/>
<path d="M505.761+942.95C238.434+942.95+20.9672+743.123+20.9672+497.481C20.9672+251.84+238.434+52.0129+505.761+52.0129C773.087+52.0129+990.554+251.84+990.554+497.481C990.554+743.123+773.087+942.95+505.761+942.95ZM505.761+86.2797C259.02+86.2797+58.259+270.755+58.259+497.481C58.259+724.208+259.02+908.683+505.761+908.683C752.502+908.683+953.263+724.208+953.263+497.481C953.263+270.755+752.502+86.2797+505.761+86.2797Z" opacity="1" fill="url(#LinearGradient_2)"/>
</g>
</svg>
